<svg xmlns="http://www.w3.org/2000/svg" width="22.087" height="34.085" viewBox="0 0 22.087 34.085"><g transform="translate(0 -25.897)"><path d="M111.137,26.449a4.955,4.955,0,0,0-4.95,4.949v3.375a3.14,3.14,0,0,0,2.34,3.032V57.924a2.609,2.609,0,1,0,5.219,0V37.806a3.139,3.139,0,0,0,2.34-3.032V31.4a4.955,4.955,0,0,0-4.949-4.949Zm3.361,8.325a1.547,1.547,0,0,1-1.546,1.546.794.794,0,0,0-.794.794v20.81a1.021,1.021,0,1,1-2.042,0V37.113a.8.8,0,0,0-.794-.794,1.547,1.547,0,0,1-1.546-1.546V31.4a3.361,3.361,0,1,1,6.722,0Z" transform="translate(128.274 86.43) rotate(180)"/><path d="M7.688,26.452h0A2.137,2.137,0,0,0,5.7,28.621V32.59a.752.752,0,1,1-1.5,0V28.621a2.137,2.137,0,0,0-1.987-2.17,2.078,2.078,0,0,0-1.557.574A2.107,2.107,0,0,0,0,28.548v6.226a3.139,3.139,0,0,0,2.34,3.032V57.924a2.609,2.609,0,0,0,5.219,0V37.806A3.14,3.14,0,0,0,9.9,34.773V28.548a2.1,2.1,0,0,0-2.211-2.1Zm.623,8.321a1.547,1.547,0,0,1-1.546,1.546.8.8,0,0,0-.794.794v20.81a1.021,1.021,0,1,1-2.042,0V37.113a.794.794,0,0,0-.794-.794,1.547,1.547,0,0,1-1.546-1.546V28.548a.511.511,0,0,1,.511-.511h.028a.566.566,0,0,1,.482.584V32.59a2.34,2.34,0,1,0,4.68,0V28.621a.566.566,0,0,1,.481-.584.511.511,0,0,1,.54.51Z" transform="translate(0 -0.552)"/></g></svg>