<svg xmlns="http://www.w3.org/2000/svg" width="39.875" height="23.615" viewBox="0 0 39.875 23.615"><defs><style>.a{stroke:#000;stroke-width:0.2px;}</style></defs><g transform="translate(0.109 -104.807)"><g transform="translate(-0.001 104.911)"><path class="a" d="M39.082,112.667a.584.584,0,0,0-1.055.5,4.551,4.551,0,0,1,.428,2.61,15.276,15.276,0,0,0-6.755-4.259,36.214,36.214,0,0,0-12.044-1.859,9.775,9.775,0,0,0-5.716-1.924,9.422,9.422,0,0,0-4.259,1.041.584.584,0,0,0,.525,1.043c6.152-3.092,12.085,2.451,12.085,5.916a4.127,4.127,0,0,1-2.336,3.34,11.746,11.746,0,0,1-6.015,1.506,11.745,11.745,0,0,1-6.014-1.506c-2.5-1.521-2.848-3.4-1.7-5.507a9.029,9.029,0,0,1,2.141-2.542.584.584,0,1,0-.747-.9,10.293,10.293,0,0,0-2.236,2.56A13.48,13.48,0,0,0,1.214,115.8c-.466-3.113,2.442-5.527,5.27-6.95,9.421-4.737,24.939-3.1,30.311,2.566a.584.584,0,1,0,.848-.8,17.272,17.272,0,0,0-7.221-4.139c-7.469-2.418-17.685-2.076-24.463,1.333-7.3,3.672-7.55,9.322-2.623,13.106a14.629,14.629,0,0,0,12.72,7.407h7.553a14.68,14.68,0,0,0,6.735-1.642.584.584,0,0,0-.538-1.037,13.5,13.5,0,0,1-6.2,1.511H16.056A13.464,13.464,0,0,1,5.876,122.5a15.121,15.121,0,0,0,2.5,1.04.584.584,0,0,0,.2-1.131c-3.525-1.316-5.971-3.192-6.942-5.245A9.959,9.959,0,0,1,4.6,114.469c-1.735,6.294,9.639,9.448,15.959,5.606,1.868-1.135,2.9-2.677,2.9-4.339a7.528,7.528,0,0,0-2.42-4.892c7.9.23,14.628,2.7,16.969,6.295a.357.357,0,0,0,.026.036,7.944,7.944,0,0,1-2.447,2.844h0a.572.572,0,0,0-.111.083c-4.1,3.06-10.5,4.171-15.643,4.171a34.677,34.677,0,0,1-9.082-1.165.584.584,0,1,0-.311,1.127,35.913,35.913,0,0,0,9.392,1.206,31.3,31.3,0,0,0,13.956-2.94,13.4,13.4,0,0,1-2.091,1.95.584.584,0,1,0,.7.934,14.515,14.515,0,0,0,3.924-4.463c2.175-1.673,3.341-3.653,3.341-5.747A5.814,5.814,0,0,0,39.082,112.667Z" transform="translate(0.001 -104.911)"/></g><g transform="translate(23.693 111.823)"><g transform="translate(0 0)"><path d="M311.73,195.929a.584.584,0,0,0-1.127.308.642.642,0,0,1,.023.169c0,.591-.846,1.11-1.81,1.11s-1.81-.518-1.81-1.11c0-.62,1.032-1.285,2.28-1.07a.584.584,0,1,0,.2-1.151c-1.794-.309-3.647.667-3.647,2.221,0,1.277,1.308,2.278,2.978,2.278s2.978-1,2.978-2.278A1.8,1.8,0,0,0,311.73,195.929Z" transform="translate(-305.838 -194.128)"/></g></g><g transform="translate(29.535 114.957)"><path d="M384.743,234.586c-3.735,0-4.768,3.222-1.694,4.3a.584.584,0,1,0,.386-1.1c-.615-.215-1.028-.581-1.028-.91,0-.528,1-1.119,2.336-1.119s2.336.591,2.336,1.119c0,.388-.609.892-1.627,1.062a.584.584,0,0,0,.192,1.152c1.557-.26,2.6-1.15,2.6-2.214C388.247,235.591,386.708,234.586,384.743,234.586Z" transform="translate(-381.242 -234.586)"/></g><g transform="translate(22.626 117.994)"><path d="M295.277,273.781c-1.806,0-3.22.932-3.22,2.122a1.626,1.626,0,0,0,.394,1.039.584.584,0,1,0,.9-.744.473.473,0,0,1-.126-.3c0-.389.8-.954,2.052-.954s2.052.565,2.052.954c0,.449-.98,1.024-2.286.947a.584.584,0,1,0-.068,1.166c1.572.092,3.523-.636,3.523-2.113C298.5,274.713,297.083,273.781,295.277,273.781Z" transform="translate(-292.057 -273.781)"/></g></g></svg>