<svg xmlns="http://www.w3.org/2000/svg" width="32.772" height="29.546" viewBox="0 0 32.772 29.546"><g transform="translate(0 -25.197)"><path d="M30.589,163.57,27.677,155.8H5.1L2.183,163.57a2.88,2.88,0,0,0,0,5.589l2.912,7.831H27.678l2.912-7.831a2.88,2.88,0,0,0,0-5.589ZM19.96,157.723l-.768,1.92H13.58l-.768-1.92Zm-13.534,0h4.317l1.536,3.84h8.213l1.536-3.84h4.317l2.16,5.761H4.266Zm19.918,17.346H6.428l-2.166-5.825H28.51Zm3.548-7.745H2.88a.96.96,0,0,1,0-1.92H29.892a.96.96,0,0,1,0,1.92Z" transform="translate(0 -122.246)"/><path d="M172.835,28.756a3.324,3.324,0,0,1,.69-2.212l-.011.011L172.156,25.2a5.1,5.1,0,0,0-1.241,3.559,3.324,3.324,0,0,1-.69,2.212l.011-.011,1.358,1.358A5.1,5.1,0,0,0,172.835,28.756Z" transform="translate(-159.329 0)"/><path d="M232.835,28.756a3.324,3.324,0,0,1,.69-2.212l-.011.011L232.156,25.2a5.1,5.1,0,0,0-1.241,3.559,3.324,3.324,0,0,1-.69,2.212l.011-.011,1.358,1.358A5.1,5.1,0,0,0,232.835,28.756Z" transform="translate(-215.489 0)"/><path d="M292.835,28.756a3.323,3.323,0,0,1,.69-2.212l-.011.011L292.156,25.2a5.1,5.1,0,0,0-1.241,3.559,3.323,3.323,0,0,1-.69,2.212l.011-.011,1.358,1.358A5.1,5.1,0,0,0,292.835,28.756Z" transform="translate(-271.648 0)"/></g></svg>