<svg xmlns="http://www.w3.org/2000/svg" width="34.311" height="34.239" viewBox="0 0 34.311 34.239"><defs><style>.a{stroke:#000;stroke-width:0.3px;}</style></defs><g transform="translate(0.165 -0.251)"><g transform="translate(-0.001 0.407)"><path class="a" d="M33.42,20.288V18.762A1.418,1.418,0,0,0,32,17.346a.284.284,0,0,1-.283-.283V16.5A1.418,1.418,0,0,0,30.3,15.08h-.753a.278.278,0,0,1-.272-.219l-.27-1.064a1.118,1.118,0,0,0-.515-.7,1.137,1.137,0,0,0-.857-.129,1.118,1.118,0,0,1-1.371-.869l-.025-.122L33.29,6.819a1.7,1.7,0,1,0-2.006-2.737L23.841,9.523a2.93,2.93,0,0,0-.736-.107h-.9a1.711,1.711,0,0,1-.385-.048l5.125-6.176a1.7,1.7,0,1,0-2.609-2.17L17.659,9.072a1.676,1.676,0,0,1-1.346-.226,3.392,3.392,0,0,0-1.869-.564H14.2a1.685,1.685,0,0,0-1.41.755.877.877,0,0,1-1.22.234,1.354,1.354,0,0,0-1.639.174l-.51.51A2.352,2.352,0,0,0,9,10.542a1.049,1.049,0,0,1-.927.573A1.843,1.843,0,0,0,6.23,12.956a.115.115,0,0,1-.066.105l-1.149.574a1.925,1.925,0,0,0-1.054,1.71l-.685.458a2.265,2.265,0,0,0-1.011,1.888v.221a1.134,1.134,0,0,0-1.133,1.133v1.133H1A1,1,0,0,0,.19,21.763l.182.446A20.568,20.568,0,0,0,8.5,31.825V32.7a1.637,1.637,0,0,0,1.635,1.636H23.854A1.638,1.638,0,0,0,25.49,32.7v-.879a20.569,20.569,0,0,0,8.122-9.614l.183-.448a1,1,0,0,0,.109-.983A.987.987,0,0,0,33.42,20.288ZM31.956,4.993a.549.549,0,0,1,.414-.1.558.558,0,0,1,.37.223.575.575,0,0,1,.114.337.568.568,0,0,1-.233.455L18.282,16.393l-.55.183a.546.546,0,0,1-.347,0l-.83-.277c-.017-.006-.034-.006-.051-.011ZM22.21,10.548h.228L18.386,13.51,21.051,10.3A2.826,2.826,0,0,0,22.21,10.548Zm3-8.805a.558.558,0,0,1,.381-.2.566.566,0,0,1,.485.925L14.645,16.245l-.71.519c-.006-.006-.014-.008-.02-.014a1.678,1.678,0,0,0-.786-.444ZM2.264,19.045A1.134,1.134,0,0,0,3.4,17.912v-.221a1.134,1.134,0,0,1,.508-.945l.688-.461a1.141,1.141,0,0,0,.5-.945.792.792,0,0,1,.429-.694l1.139-.57a1.253,1.253,0,0,0,.7-1.121.71.71,0,0,1,.708-.708,2.189,2.189,0,0,0,1.936-1.189,1.234,1.234,0,0,1,.215-.3l.51-.51a.206.206,0,0,1,.222-.024,2,2,0,0,0,2.778-.557.558.558,0,0,1,.467-.25h.244a2.257,2.257,0,0,1,1.242.374,2.812,2.812,0,0,0,1.03.419l-5.275,6.357a.538.538,0,0,1-.275-.049,1.679,1.679,0,0,0-1.94.315l-.565.565a.566.566,0,0,0,.8.8l.565-.565a.548.548,0,0,1,.634-.1,1.668,1.668,0,0,0,1.283.091l.608-.2a.544.544,0,0,1,.561.132,1.685,1.685,0,0,0,2.121.21l.486-.324a.548.548,0,0,1,.477-.064l.83.277a1.687,1.687,0,0,0,1.063,0l.83-.277a.554.554,0,0,1,.477.064l1.246.831a.566.566,0,0,0,.628-.943l-1.228-.819,5.218-3.816a2.256,2.256,0,0,0,2.1,1.443,2.421,2.421,0,0,0,.544-.064l.27,1.063a1.405,1.405,0,0,0,1.372,1.081H30.3a.284.284,0,0,1,.283.283v.566A1.418,1.418,0,0,0,32,18.479a.284.284,0,0,1,.283.283v1.416H2.264Zm30.3,2.736a19.446,19.446,0,0,1-7.81,9.159h-1.53a.566.566,0,0,0,0,1.133h1.133v.63a.5.5,0,0,1-.5.5H10.131a.5.5,0,0,1-.5-.5v-.63h6.8a.566.566,0,1,0,0-1.133h-7.2a19.416,19.416,0,0,1-7.81-9.161l-.192-.469H32.756Z" transform="translate(0.001 -0.407)"/></g></g></svg>