<svg xmlns="http://www.w3.org/2000/svg" width="33.733" height="30.4" viewBox="0 0 33.733 30.4"><defs><style>.a{stroke:#000;stroke-width:0.4px;}</style></defs><g transform="translate(-1.8 -4.8)"><path class="a" d="M34.778,34.243H27V32.9c1.263-.764,6.111-4.038,6.111-9.208a.556.556,0,0,0-.556-.556h-3.1l.163-.163c.006-.006.009-.013.014-.019l2.759-2.759a.556.556,0,0,0,.135-.567l-.306-.928L34.616,16.3l-.786-.786-2,2-.3-.908,2.527-2.527-.786-.786-9.836,9.835H21.389a2.763,2.763,0,0,0-4.567-1.506,2.774,2.774,0,0,0-2.6-1.828H13.111v1.667a2.749,2.749,0,0,0,.57,1.667h-8.9a.556.556,0,0,0-.556.556c0,5.171,4.848,8.444,6.111,9.208v1.347H2.556A.556.556,0,0,0,2,34.8V35.91a2.781,2.781,0,0,0,2.778,2.778H32.556a2.781,2.781,0,0,0,2.778-2.778V34.8A.556.556,0,0,0,34.778,34.243ZM28.667,19.471l.722.722.786-.786-.724-.721,1.2-1.2.714,2.167-2.292,2.292-2.156-.718ZM26.043,22.1l2.156.718-.313.312H25.009Zm-7.377-.081a1.67,1.67,0,0,1,1.572,1.111H17.095a1.67,1.67,0,0,1,1.572-1.111ZM14.222,20.91a1.667,1.667,0,0,1,1.667,1.667v.556a1.667,1.667,0,0,1-1.667-1.667ZM5.356,24.243H31.977c-.359,4.448-4.922,7.327-5.683,7.778H11.039C10.278,31.57,5.715,28.691,5.356,24.243Zm20.533,8.889v1.111H11.444V33.132Zm8.333,2.778a1.667,1.667,0,0,1-1.667,1.667H4.778A1.667,1.667,0,0,1,3.111,35.91v-.556H34.222Z" transform="translate(0 -3.688)"/><path class="a" d="M30,13.333h1.111a1.591,1.591,0,0,1,.444-1.056,2.556,2.556,0,0,0,0-3.444,1.591,1.591,0,0,1-.444-1.056,1.593,1.593,0,0,1,.444-1.056A2.661,2.661,0,0,0,32.222,5H31.111a1.593,1.593,0,0,1-.444,1.056A2.661,2.661,0,0,0,30,7.778,2.66,2.66,0,0,0,30.667,9.5a1.476,1.476,0,0,1,0,2.111A2.66,2.66,0,0,0,30,13.333Z" transform="translate(-12.444 0)"/><path class="a" d="M26.222,8H25.111a1.593,1.593,0,0,1-.444,1.056,2.558,2.558,0,0,0,0,3.444,1.476,1.476,0,0,1,0,2.111A2.66,2.66,0,0,0,24,16.333h1.111a1.591,1.591,0,0,1,.444-1.056,2.556,2.556,0,0,0,0-3.444,1.476,1.476,0,0,1,0-2.111A2.661,2.661,0,0,0,26.222,8Z" transform="translate(-9.778 -1.333)"/><path class="a" d="M38.222,8H37.111a1.593,1.593,0,0,1-.444,1.056,2.558,2.558,0,0,0,0,3.444,1.476,1.476,0,0,1,0,2.111A2.66,2.66,0,0,0,36,16.333h1.111a1.591,1.591,0,0,1,.444-1.056,2.556,2.556,0,0,0,0-3.444,1.476,1.476,0,0,1,0-2.111A2.661,2.661,0,0,0,38.222,8Z" transform="translate(-15.111 -1.333)"/><path class="a" d="M16.017,40.433h6.111V39.322H16.11c-2.944-1.041-3.993-4.562-4-4.6l-1.068.306c.048.17,1.232,4.184,4.8,5.374A.556.556,0,0,0,16.017,40.433Z" transform="translate(-4.017 -13.211)"/><rect class="a" width="1.111" height="1.111" transform="translate(19.222 26.111)"/></g></svg>